<?xml version="1.0" encoding="utf-8"?>
<!-- Generator: Adobe Illustrator 19.0.0, SVG Export Plug-In . SVG Version: 6.00 Build 0)  -->
<svg version="1.0" id="Capa_1" xmlns="http://www.w3.org/2000/svg" xmlns:xlink="http://www.w3.org/1999/xlink" x="0px" y="0px"
	 viewBox="0 0 374.2 275" style="enable-background:new 0 0 374.2 275;" xml:space="preserve">
<style type="text/css">
	.st0{fill:#452B83;}
</style>
<path id="XMLID_20_" class="st0" d="M373.4,27.7c-0.3,4.1-1.2,8.3-2.9,12.5c-1.7,4.2-3.7,8.4-6.2,12.3c-2.5,4-5.3,7.6-8.5,10.8
	c-3.2,3.2-6.5,6-9.8,8.3c-21.3-13.9-42.9-20.8-64.8-20.8c-31.5,0-51.2,16.6-58.9,49.8h-63.1c1.6-8,3.8-15.6,6.6-22.7
	c6.8-17.3,14.9-31.8,26.4-43.4s25.6-20.2,40.5-26C247.6,2.9,263.1,0,279.3,0C312.7,0,344.1,9.2,373.4,27.7z"/>
<path id="XMLID_17_" d="M374.2,143.4c0-18-13.6-30.8-40.9-30.8H63.1l-0.4-60.2h76.3c11.4,0,19.7-2.3,25-6.9
	c5.3-4.6,7.9-11.8,7.9-21.4c0-9.6-0.8-17.7-2.3-24.1H4.4L1.7,2.3v270.3c8.2,1.5,18.4,2.3,30.7,2.3c12.3,0,22.5-0.8,30.7-2.3V163.1
	h93.7c1.2,11.9,3.1,23.1,6.1,33.4c4.9,16.8,12.2,31,21.8,42.6c9.6,11.6,21.6,20.4,35.9,26.6c14.3,6.2,30.7,9.3,49.2,9.3
	c36.5,0,71.4-5.3,104.5-23.5L374.2,143.4z M300,220.6c-5.5,0.5-11.3,0.8-17.2,0.8c-36.5,0-68.6-3.3-62.9-58.2h97.2l0,55.2
	C317.1,218.3,305.5,220.1,300,220.6z"/>
</svg>
