<?xml version="1.0" encoding="UTF-8" standalone="no"?><!DOCTYPE svg PUBLIC "-//W3C//DTD SVG 1.1//EN" "http://www.w3.org/Graphics/SVG/1.1/DTD/svg11.dtd"><svg width="100%" height="100%" viewBox="0 0 375 275" version="1.1" xmlns="http://www.w3.org/2000/svg" xmlns:xlink="http://www.w3.org/1999/xlink" xml:space="preserve" xmlns:serif="http://www.serif.com/" style="fill-rule:evenodd;clip-rule:evenodd;stroke-linejoin:round;stroke-miterlimit:1.41421;"><path id="XMLID_20_" d="M332.977,51.64c-0.235,3.206 -0.938,6.49 -2.268,9.774c-1.329,3.285 -2.893,6.569 -4.848,9.619c-1.955,3.128 -4.144,5.943 -6.647,8.445c-2.502,2.502 -5.082,4.692 -7.663,6.49c-16.656,-10.869 -33.546,-16.265 -50.672,-16.265c-24.632,0 -40.036,12.981 -46.057,38.942l-49.343,0c1.251,-6.255 2.972,-12.198 5.161,-17.75c5.318,-13.528 11.652,-24.867 20.644,-33.938c8.993,-9.071 20.019,-15.796 31.67,-20.331c11.651,-4.379 23.772,-6.647 36.44,-6.647c26.117,0 50.671,7.194 73.583,21.661Z" style="fill:#1f9e67;fill-rule:nonzero;"/><path id="XMLID_17_" d="M333.603,142.114c0,-14.076 -10.635,-24.085 -31.983,-24.085l-211.288,0l-0.313,-47.075l59.665,0c8.914,0 15.404,-1.798 19.549,-5.395c4.144,-3.597 6.177,-9.227 6.177,-16.734c0,-7.507 -0.625,-13.841 -1.798,-18.846l-129.181,0l-2.112,1.799l0,211.366c6.412,1.173 14.388,1.798 24.007,1.798c9.618,0 17.594,-0.625 24.006,-1.798l0,-85.626l73.271,0c0.938,9.306 2.424,18.064 4.77,26.118c3.831,13.137 9.54,24.241 17.047,33.312c7.506,9.071 16.89,15.952 28.072,20.8c11.182,4.849 24.007,7.273 38.473,7.273c28.542,0 55.833,-4.145 81.716,-18.377l-0.078,-84.53Zm-58.023,60.368c-4.3,0.391 -8.836,0.625 -13.449,0.625c-28.542,0 -53.643,-2.58 -49.186,-45.51l76.007,0l0,43.164c0,-0.078 -9.071,1.33 -13.372,1.721Z" style="fill-rule:nonzero;"/></svg>